<?xml version="1.0" encoding="windows-1252"?>
<!-- Generator: Adobe Illustrator 16.0.0, SVG Export Plug-In . SVG Version: 6.00 Build 0)  -->
<!DOCTYPE svg PUBLIC "-//W3C//DTD SVG 1.1//EN" "http://www.w3.org/Graphics/SVG/1.1/DTD/svg11.dtd">
<svg version="1.1" id="Capa_1" xmlns="http://www.w3.org/2000/svg" xmlns:xlink="http://www.w3.org/1999/xlink" x="0px" y="0px" width="60.731px" height="60.731px" viewBox="0 0 60.731 60.731" style="enable-background:new 0 0 60.731 60.731;" xml:space="preserve">
<g>
	<g>
		<path d="M30.366,0C13.595,0,0,13.594,0,30.365c0,16.771,13.594,30.366,30.366,30.366c16.771,0,30.365-13.596,30.365-30.366    C60.731,13.594,47.137,0,30.366,0z M30.366,57.029c-14.726,0-26.664-11.938-26.664-26.661c0-14.728,11.938-26.664,26.664-26.664    c14.727,0,26.661,11.936,26.661,26.664C57.029,45.092,45.093,57.029,30.366,57.029z"/>
		<path d="M39.97,29.849c-1.465-1.001-4.236-2.078-8.321-3.221V13.763c2.432,0.089,4.197,1.021,5.31,2.8    c0.598,0.97,0.959,2.122,1.082,3.46h4.621c-0.087-2.986-1.067-5.389-2.945-7.207c-1.875-1.817-4.566-2.849-8.07-3.094V6.263h-2.51    v3.513c-3.542,0.035-6.292,1.128-8.255,3.277c-1.964,2.146-2.945,4.56-2.945,7.237c0,2.994,0.91,5.337,2.732,7.025    c1.822,1.691,4.644,2.897,8.468,3.621v14.396c-2.978-0.247-5.02-1.362-6.12-3.358c-0.622-1.108-1.003-2.869-1.146-5.283h-4.674    c0,3.029,0.501,5.434,1.504,7.211c1.832,3.296,5.312,5.109,10.435,5.442v5.123h2.51v-5.123c3.189-0.352,5.625-1.074,7.315-2.167    c3.048-1.976,4.571-5.301,4.571-9.984C43.532,33.953,42.347,31.506,39.97,29.849z M29.138,26.126    c-1.972-0.388-3.537-1.074-4.702-2.061c-1.164-0.987-1.743-2.349-1.743-4.094c0-1.443,0.49-2.826,1.479-4.148    c0.988-1.322,2.642-2.024,4.966-2.113V26.126z M37.88,42.158c-1.145,2.062-3.221,3.162-6.231,3.304V31.57    c2.201,0.598,3.768,1.231,4.698,1.899c1.622,1.144,2.437,2.817,2.437,5.021C38.783,39.88,38.482,41.104,37.88,42.158z"/>
	</g>
</g>
<g>
</g>
<g>
</g>
<g>
</g>
<g>
</g>
<g>
</g>
<g>
</g>
<g>
</g>
<g>
</g>
<g>
</g>
<g>
</g>
<g>
</g>
<g>
</g>
<g>
</g>
<g>
</g>
<g>
</g>
</svg>